<?xml version="1.0" encoding="iso-8859-1"?>
<!-- Generator: Adobe Illustrator 18.1.1, SVG Export Plug-In . SVG Version: 6.00 Build 0)  -->
<svg version="1.1" id="Capa_1" xmlns="http://www.w3.org/2000/svg" xmlns:xlink="http://www.w3.org/1999/xlink" x="0px" y="0px"
	 viewBox="0 0 196.78 196.78" style="enable-background:new 0 0 196.78 196.78;" xml:space="preserve">
<g>
	<g>
		<path style="fill:#010002;" d="M147.989,31.109H52.677c-10.003,0-18.156,8.145-18.156,18.156v95.316
			c0,10.017,8.153,18.159,18.156,18.159h95.312c10.01,0,18.156-8.142,18.156-18.159V49.261
			C166.148,39.255,157.999,31.109,147.989,31.109z M147.989,156.87H52.677c-6.775,0-12.293-5.515-12.293-12.293V49.261
			c0-6.778,5.519-12.293,12.293-12.293h95.312c6.782,0,12.297,5.515,12.297,12.293v95.316
			C160.286,151.355,154.771,156.87,147.989,156.87z"/>
		<path style="fill:#010002;" d="M176.287,59.579h17.554c1.621,0,2.938-1.313,2.938-2.935s-1.317-2.938-2.938-2.938h-17.554
			c-1.614,0-2.931,1.317-2.931,2.938C173.352,58.265,174.669,59.579,176.287,59.579z"/>
		<path style="fill:#010002;" d="M193.841,69.696h-17.554c-1.614,0-2.931,1.313-2.931,2.938c0,1.614,1.317,2.931,2.931,2.931h17.554
			c1.621,0,2.938-1.317,2.938-2.931C196.78,71.01,195.463,69.696,193.841,69.696z"/>
		<path style="fill:#010002;" d="M193.841,85.987h-17.554c-1.614,0-2.931,1.321-2.931,2.935c0,1.621,1.317,2.945,2.931,2.945h17.554
			c1.621,0,2.938-1.324,2.938-2.945C196.78,87.308,195.463,85.987,193.841,85.987z"/>
		<path style="fill:#010002;" d="M193.841,101.974h-17.554c-1.614,0-2.931,1.317-2.931,2.942c0,1.614,1.317,2.931,2.931,2.931
			h17.554c1.621,0,2.938-1.317,2.938-2.931C196.78,103.291,195.463,101.974,193.841,101.974z"/>
		<path style="fill:#010002;" d="M193.841,116.726h-17.554c-1.614,0-2.931,1.317-2.931,2.935c0,1.614,1.317,2.931,2.931,2.931
			h17.554c1.621,0,2.938-1.317,2.938-2.931C196.78,118.043,195.463,116.726,193.841,116.726z"/>
		<path style="fill:#010002;" d="M193.841,132.713h-17.554c-1.614,0-2.931,1.317-2.931,2.942c0,1.614,1.317,2.92,2.931,2.92h17.554
			c1.621,0,2.938-1.306,2.938-2.92C196.78,134.03,195.463,132.713,193.841,132.713z"/>
		<path style="fill:#010002;" d="M20.489,53.706H2.935C1.317,53.706,0,55.023,0,56.644s1.317,2.935,2.935,2.935h17.554
			c1.614,0,2.931-1.313,2.931-2.935S22.103,53.706,20.489,53.706z"/>
		<path style="fill:#010002;" d="M20.489,69.696H2.935C1.317,69.696,0,71.01,0,72.635c0,1.614,1.317,2.931,2.935,2.931h17.554
			c1.614,0,2.931-1.317,2.931-2.931C23.42,71.01,22.103,69.696,20.489,69.696z"/>
		<path style="fill:#010002;" d="M20.489,85.987H2.935C1.317,85.987,0,87.308,0,88.922c0,1.621,1.317,2.945,2.935,2.945h17.554
			c1.614,0,2.931-1.324,2.931-2.945C23.42,87.308,22.103,85.987,20.489,85.987z"/>
		<path style="fill:#010002;" d="M20.489,101.974H2.935c-1.618,0-2.935,1.317-2.935,2.942c0,1.614,1.317,2.931,2.935,2.931h17.554
			c1.614,0,2.931-1.317,2.931-2.931C23.42,103.291,22.103,101.974,20.489,101.974z"/>
		<path style="fill:#010002;" d="M20.489,116.726H2.935c-1.618,0-2.935,1.317-2.935,2.935c0,1.614,1.317,2.931,2.935,2.931h17.554
			c1.614,0,2.931-1.317,2.931-2.931C23.42,118.043,22.103,116.726,20.489,116.726z"/>
		<path style="fill:#010002;" d="M20.489,132.713H2.935c-1.618,0-2.935,1.317-2.935,2.942c0,1.614,1.317,2.92,2.935,2.92h17.554
			c1.614,0,2.931-1.306,2.931-2.92C23.42,134.03,22.103,132.713,20.489,132.713z"/>
		<path style="fill:#010002;" d="M139.84,173.358c-1.614,0-2.931,1.321-2.931,2.935v17.554c0,1.614,1.317,2.931,2.931,2.931
			c1.621,0,2.938-1.317,2.938-2.931v-17.554C142.778,174.678,141.461,173.358,139.84,173.358z"/>
		<path style="fill:#010002;" d="M123.85,173.358c-1.61,0-2.928,1.321-2.928,2.935v17.554c0,1.614,1.317,2.931,2.928,2.931
			c1.618,0,2.938-1.317,2.938-2.931v-17.554C126.792,174.678,125.467,173.358,123.85,173.358z"/>
		<path style="fill:#010002;" d="M107.566,173.358c-1.625,0-2.938,1.321-2.938,2.935v17.554c0,1.614,1.313,2.931,2.938,2.931
			c1.61,0,2.927-1.317,2.927-2.931v-17.554C110.497,174.678,109.18,173.358,107.566,173.358z"/>
		<path style="fill:#010002;" d="M91.579,173.358c-1.621,0-2.938,1.321-2.938,2.935v17.554c0,1.614,1.317,2.931,2.938,2.931
			c1.614,0,2.927-1.317,2.927-2.931v-17.554C94.507,174.678,93.193,173.358,91.579,173.358z"/>
		<path style="fill:#010002;" d="M76.824,173.358c-1.621,0-2.938,1.321-2.938,2.935v17.554c0,1.614,1.321,2.931,2.938,2.931
			c1.614,0,2.928-1.317,2.928-2.931v-17.554C79.751,174.678,78.438,173.358,76.824,173.358z"/>
		<path style="fill:#010002;" d="M60.84,173.358c-1.625,0-2.938,1.321-2.938,2.935v17.554c0,1.614,1.313,2.931,2.938,2.931
			c1.614,0,2.928-1.317,2.928-2.931v-17.554C63.768,174.678,62.455,173.358,60.84,173.358z"/>
		<path style="fill:#010002;" d="M139.84,23.418c1.621,0,2.938-1.313,2.938-2.92V2.936c0-1.621-1.317-2.935-2.938-2.935
			c-1.614,0-2.931,1.313-2.931,2.935v17.561C136.909,22.105,138.226,23.418,139.84,23.418z"/>
		<path style="fill:#010002;" d="M123.85,23.418c1.618,0,2.938-1.313,2.938-2.92V2.936c0-1.621-1.321-2.935-2.938-2.935
			c-1.61,0-2.928,1.313-2.928,2.935v17.561C120.922,22.105,122.239,23.418,123.85,23.418z"/>
		<path style="fill:#010002;" d="M107.566,23.418c1.61,0,2.927-1.313,2.927-2.92V2.936c0-1.621-1.317-2.935-2.927-2.935
			c-1.625,0-2.938,1.313-2.938,2.935v17.561C104.628,22.105,105.941,23.418,107.566,23.418z"/>
		<path style="fill:#010002;" d="M91.579,23.418c1.614,0,2.927-1.313,2.927-2.92V2.936c0-1.621-1.313-2.935-2.927-2.935
			c-1.621,0-2.938,1.313-2.938,2.935v17.561C88.641,22.105,89.958,23.418,91.579,23.418z"/>
		<path style="fill:#010002;" d="M76.824,23.418c1.614,0,2.928-1.313,2.928-2.92V2.936c0-1.621-1.313-2.935-2.928-2.935
			c-1.621,0-2.938,1.313-2.938,2.935v17.561C73.885,22.105,75.202,23.418,76.824,23.418z"/>
		<path style="fill:#010002;" d="M60.84,23.418c1.614,0,2.928-1.313,2.928-2.92V2.936c0-1.621-1.313-2.935-2.928-2.935
			c-1.625,0-2.938,1.313-2.938,2.935v17.561C57.902,22.105,59.216,23.418,60.84,23.418z"/>
	</g>
</g>
<g>
</g>
<g>
</g>
<g>
</g>
<g>
</g>
<g>
</g>
<g>
</g>
<g>
</g>
<g>
</g>
<g>
</g>
<g>
</g>
<g>
</g>
<g>
</g>
<g>
</g>
<g>
</g>
<g>
</g>
</svg>
