<?xml version='1.0' encoding='iso-8859-1'?>
<!DOCTYPE svg PUBLIC '-//W3C//DTD SVG 1.1//EN' 'http://www.w3.org/Graphics/SVG/1.1/DTD/svg11.dtd'>
<svg version="1.1" xmlns="http://www.w3.org/2000/svg" viewBox="0 0 471.24 471.24" xmlns:xlink="http://www.w3.org/1999/xlink" enable-background="new 0 0 471.24 471.24">
  <g>
    <path d="m334.596,102.563v-92.563c0-5.523-4.477-10-10-10h-177.95c-5.523,0-10,4.477-10,10v92.562c-21.507,7.354-37.02,27.751-37.02,51.717v162.681c0,23.966 15.513,44.364 37.02,51.718v92.563c0,5.523 4.477,10 10,10h177.95c5.523,0 10-4.477 10-10v-92.563c21.506-7.354 37.018-27.751 37.018-51.717v-162.682c-5.68434e-14-23.966-15.512-44.362-37.018-51.716zm-20-82.563v79.626h-157.95v-79.626h157.95zm-157.95,431.24v-79.627h157.95v79.627h-157.95zm194.968-134.28c0,19.108-15.545,34.653-34.653,34.653h-162.681c-19.108,0-34.653-15.545-34.653-34.653v-162.681c0-19.107 15.545-34.653 34.653-34.653h162.681c19.108,0 34.653,15.545 34.653,34.653v162.681z"/>
    <path d="m312.985,132.626h-154.73c-14.131,0-25.628,11.497-25.628,25.628v154.73c0,14.131 11.497,25.628 25.628,25.628h154.73c14.131,0 25.628-11.497 25.628-25.628v-154.73c0.001-14.131-11.497-25.628-25.628-25.628zm5.629,180.359c0,3.104-2.525,5.628-5.628,5.628h-154.73c-3.104,0-5.628-2.525-5.628-5.628v-154.73c0-3.104 2.525-5.628 5.628-5.628h154.73c3.104,0 5.628,2.525 5.628,5.628v154.73z"/>
    <path d="m207.337,199.936c-3.905-3.905-10.237-3.905-14.143,0l-28.613,28.613c-3.905,3.905-3.905,10.237 0,14.143l28.613,28.613c1.953,1.953 4.512,2.929 7.071,2.929s5.119-0.976 7.071-2.929c3.905-3.905 3.905-10.237 0-14.143l-21.542-21.542 21.542-21.542c3.905-3.905 3.905-10.237 0.001-14.142z"/>
    <path d="m278.046,199.936c-3.906-3.905-10.237-3.905-14.142,0-3.905,3.905-3.906,10.237 0,14.142l21.542,21.542-21.542,21.542c-3.905,3.905-3.905,10.237 0,14.142 1.953,1.953 4.512,2.929 7.071,2.929s5.119-0.977 7.071-2.929l28.612-28.613c3.905-3.905 3.905-10.237 0-14.142l-28.612-28.613z"/>
    <path d="m246.336,174.307c-5.423-1.067-10.676,2.465-11.74,7.885l-20.232,103c-1.064,5.419 2.466,10.675 7.885,11.74 0.651,0.128 1.299,0.189 1.938,0.189 4.683,0 8.865-3.306 9.802-8.075l20.232-103c1.064-5.418-2.466-10.674-7.885-11.739z"/>
  </g>
</svg>
