<?xml version="1.0"?>
<svg xmlns="http://www.w3.org/2000/svg" height="512px" version="1.1" viewBox="-87 1 563 563.519" width="512px">
<g id="surface1">
<path d="M 10.382812 355.792969 L 174.367188 355.792969 L 174.367188 542.839844 L 99.464844 542.839844 C 93.625 542.839844 88.882812 547.582031 88.882812 553.421875 C 88.882812 559.261719 93.625 564 99.464844 564 L 334.757812 564 C 340.597656 564 345.335938 559.261719 345.335938 553.421875 C 345.335938 547.582031 340.597656 542.839844 334.757812 542.839844 L 259.851562 542.839844 L 259.851562 355.792969 L 379.296875 355.792969 C 385.136719 355.792969 389.875 351.054688 389.875 345.214844 L 389.875 194.558594 C 389.527344 142.117188 347.101562 99.691406 294.660156 99.34375 L 277.097656 99.34375 L 277.097656 82.308594 L 345.335938 82.308594 C 351.175781 82.308594 355.914062 77.570312 355.914062 71.730469 L 355.914062 10.578125 C 355.914062 4.738281 351.175781 0 345.335938 0 L 266.515625 0 C 260.675781 0 255.9375 4.738281 255.9375 10.578125 L 255.9375 98.8125 L 95.550781 98.8125 C 43.109375 99.164062 0.683594 141.589844 0.335938 194.03125 L 0.335938 345.214844 C 0.324219 350.851562 4.746094 355.507812 10.382812 355.792969 Z M 334.757812 61.148438 L 277.097656 61.148438 L 277.097656 21.160156 L 334.757812 21.160156 Z M 238.691406 542.839844 L 195.527344 542.839844 L 195.527344 355.792969 L 238.691406 355.792969 Z M 255.9375 119.65625 L 255.9375 193.710938 C 255.9375 199.550781 260.675781 204.292969 266.515625 204.292969 C 272.359375 204.292969 277.097656 199.550781 277.097656 193.710938 L 277.097656 119.65625 L 294.234375 119.65625 C 334.988281 120.003906 367.945312 152.960938 368.292969 193.710938 L 368.292969 334.632812 L 191.296875 334.632812 L 191.296875 194.558594 C 191.179688 165.71875 177.988281 138.476562 155.429688 120.503906 Z M 20.964844 193.710938 C 20.964844 152.515625 54.351562 119.125 95.550781 119.125 C 136.746094 119.125 170.136719 152.515625 170.136719 193.710938 L 170.136719 334.632812 L 20.964844 334.632812 C 20.964844 334.632812 20.964844 193.710938 20.964844 193.710938 Z M 20.964844 193.710938 " style=" fill-rule:nonzero;fill-opacity:1;" stroke="#D80027" fill="#D80027"/>
</g>
</svg>
